<svg width="40" height="40" viewBox="0 0 40 40" fill="none" xmlns="http://www.w3.org/2000/svg">
<path d="M39.3547 11.2889H0.645097C0.288999 11.2889 0 11.5781 0 11.9342V22.2567C0 22.6128 0.288999 22.9018 0.645097 22.9018H3.38709V21.6114H1.29038V12.5793H38.7096V21.6116H25.8874V22.902H39.3549C39.711 22.902 40 22.6134 40 22.2569V11.9342C40 11.5781 39.711 11.2889 39.3547 11.2889Z" fill="#019DA7"/>
<path d="M39.9019 11.5925L33.4504 1.26997C33.3322 1.08134 33.1255 0.966797 32.9032 0.966797H7.09683C6.87455 0.966797 6.66777 1.08134 6.54964 1.26997L0.0980979 11.5925C-0.0260829 11.7911 -0.0328873 12.0421 0.0810868 12.247C0.194872 12.4519 0.410345 12.5793 0.645287 12.5793H39.3549C39.5897 12.5793 39.8055 12.4519 39.9191 12.247C40.0325 12.0421 40.0261 11.7913 39.9019 11.5925ZM1.80903 11.2889L7.45425 2.2568H32.5456L38.1908 11.2891H1.80903V11.2889Z" fill="#019DA7"/>
<path d="M19.9999 15.8052H3.87093C3.51483 15.8052 3.22583 16.0942 3.22583 16.4503C3.22583 16.8064 3.51483 17.0954 3.87093 17.0954H19.9999C20.356 17.0954 20.645 16.8064 20.645 16.4503C20.645 16.0942 20.3562 15.8052 19.9999 15.8052Z" fill="#019DA7"/>
<path d="M28.3429 28.4644C28.2073 27.9624 28.0777 27.4725 27.9512 26.996C26.7831 22.5863 25.9394 19.4002 23.7045 18.7386C22.822 18.477 20.9858 17.9329 19.0046 19.1087C17.4471 20.033 12.2304 20.0322 10.6729 19.1087C8.69131 17.9327 6.85488 18.4774 5.96879 18.7397C3.73807 19.4002 2.89432 22.5861 1.72623 26.9958C1.59978 27.4723 1.47012 27.9622 1.3346 28.4642C0.295978 32.3091 0.301459 35.9651 1.34783 37.7781C1.71905 38.4217 2.20689 38.8275 2.79717 38.9842C2.91871 39.0166 3.04043 39.0321 3.16196 39.0321C4.56746 39.0321 5.98882 36.9733 7.36785 34.9781C7.95625 34.1255 8.5643 33.2445 8.89337 32.9893C9.12169 32.8119 9.99852 32.407 13.1643 32.4478L17.1091 32.445C19.8088 32.4573 20.5785 32.8298 20.7843 32.9895H20.7847C21.1134 33.2447 21.7218 34.1257 22.3102 34.9783C23.8083 37.147 25.3591 39.3948 26.8805 38.9848C27.4708 38.8281 27.9586 38.4223 28.3298 37.7787C29.376 35.9653 29.3815 32.3093 28.3429 28.4644ZM27.2126 37.1321C27.0187 37.4676 26.7954 37.6712 26.549 37.7366C25.9031 37.8982 24.129 35.3397 23.3719 34.2436C22.64 33.1836 22.0616 32.3461 21.5755 31.9689C21.133 31.6256 20.1891 31.1677 17.1116 31.1537L13.1726 31.1565C10.5117 31.1176 8.8533 31.3861 8.10235 31.9691C7.61584 32.3465 7.03784 33.1838 6.30561 34.2438C5.54824 35.3403 3.77795 37.9061 3.12851 37.7368C2.88204 37.6714 2.65881 37.4678 2.46489 37.1323C1.74041 35.8778 1.49545 32.8149 2.57981 28.8001C2.7159 28.2966 2.84631 27.804 2.97295 27.326C3.99362 23.4741 4.79975 20.4314 6.33906 19.9757C6.74903 19.8543 7.34801 19.6767 8.04754 19.6767C8.6486 19.6767 9.32299 19.8077 10.015 20.2176C11.9537 21.368 17.7246 21.368 19.6633 20.2176C21.16 19.3306 22.5771 19.7496 23.3429 19.9766C24.8781 20.4312 25.6839 23.4737 26.7045 27.3256C26.8313 27.8036 26.9616 28.296 27.0977 28.7997C28.1818 32.8147 27.9367 35.8776 27.2126 37.1321Z" fill="#019DA7"/>
<path d="M9.03227 22.9027H7.74188V28.064H9.03227V22.9027Z" fill="#019DA7"/>
<path d="M20.9677 22.9017C19.3667 22.9017 18.0645 24.204 18.0645 25.805C18.0645 27.4059 19.3667 28.7082 20.9677 28.7082C22.5686 28.7082 23.8709 27.4059 23.8709 25.805C23.8709 24.204 22.5688 22.9017 20.9677 22.9017ZM20.9677 27.418C20.0784 27.418 19.3548 26.6944 19.3548 25.8051C19.3548 24.9158 20.0784 24.1923 20.9677 24.1923C21.857 24.1923 22.5805 24.9158 22.5805 25.8051C22.5807 26.6944 21.8572 27.418 20.9677 27.418Z" fill="#019DA7"/>
<path d="M34.516 14.5148C33.2712 14.5148 32.2579 15.5281 32.2579 16.7729C32.2579 18.0177 33.2712 19.031 34.516 19.031C35.7608 19.031 36.7741 18.0177 36.7741 16.7729C36.7741 15.5281 35.7608 14.5148 34.516 14.5148ZM34.516 17.7406C33.9824 17.7406 33.5483 17.3065 33.5483 16.7729C33.5483 16.2393 33.9824 15.8052 34.516 15.8052C35.0496 15.8052 35.4837 16.2393 35.4837 16.7729C35.4837 17.3065 35.0496 17.7406 34.516 17.7406Z" fill="#019DA7"/>
<path d="M10.9678 24.8384H5.80646V26.1288H10.9678V24.8384Z" fill="#019DA7"/>
</svg>
