<?xml version="1.0" encoding="UTF-8"?>
<svg xmlns="http://www.w3.org/2000/svg" xmlns:xlink="http://www.w3.org/1999/xlink" width="39pt" height="27pt" viewBox="0 0 39 27" version="1.1">
<g id="surface1">
<path style=" stroke:none;fill-rule:nonzero;fill:rgb(0%,61.960784%,66.27451%);fill-opacity:1;" d="M 5.515625 2.378906 L 1.839844 2.378906 C 1.5 2.378906 1.230469 2.101562 1.230469 1.761719 C 1.230469 1.425781 1.5 1.148438 1.839844 1.148438 L 5.515625 1.148438 C 5.851562 1.148438 6.125 1.425781 6.125 1.761719 C 6.128906 2.101562 5.851562 2.378906 5.515625 2.378906 Z M 5.515625 27 C 5.175781 27 4.902344 26.722656 4.902344 26.386719 L 4.902344 1.761719 C 4.902344 1.425781 5.175781 1.148438 5.515625 1.148438 C 5.851562 1.148438 6.125 1.425781 6.125 1.761719 L 6.125 26.386719 C 6.128906 26.722656 5.851562 27 5.515625 27 Z M 5.515625 14.074219 L 3.066406 14.074219 C 2.726562 14.074219 2.457031 13.796875 2.457031 13.460938 L 2.457031 8.535156 C 2.457031 8.199219 2.734375 7.921875 3.066406 7.921875 L 5.515625 7.921875 C 5.851562 7.921875 6.125 8.199219 6.125 8.535156 L 6.125 13.460938 C 6.128906 13.796875 5.851562 14.074219 5.515625 14.074219 Z M 4.902344 9.152344 L 3.675781 9.152344 L 3.675781 12.84375 L 4.902344 12.84375 Z M 5.515625 23.921875 L 3.066406 23.921875 C 2.726562 23.921875 2.457031 23.644531 2.457031 23.304688 L 2.457031 18.382812 C 2.457031 18.042969 2.734375 17.769531 3.066406 17.769531 L 5.515625 17.769531 C 5.851562 17.769531 6.125 18.042969 6.125 18.382812 L 6.125 23.304688 C 6.128906 23.644531 5.851562 23.921875 5.515625 23.921875 Z M 4.902344 18.996094 L 3.675781 18.996094 L 3.675781 22.691406 L 4.902344 22.691406 Z M 23.273438 27 L 9.804688 27 C 9.464844 27 9.191406 26.722656 9.191406 26.386719 L 9.191406 22.078125 C 9.191406 21.738281 9.46875 21.460938 9.804688 21.460938 L 23.273438 21.460938 C 23.613281 21.460938 23.882812 21.738281 23.882812 22.078125 L 23.882812 26.386719 C 23.882812 26.722656 23.613281 27 23.273438 27 Z M 22.664062 22.691406 L 10.414062 22.691406 L 10.414062 25.769531 L 22.664062 25.769531 Z M 12.863281 27 C 12.523438 27 12.25 26.722656 12.25 26.386719 L 12.25 24.542969 C 12.25 24.203125 12.527344 23.925781 12.863281 23.925781 C 13.199219 23.925781 13.472656 24.203125 13.472656 24.542969 L 13.472656 26.386719 C 13.476562 26.722656 13.199219 27 12.863281 27 Z M 20.210938 27 C 19.871094 27 19.597656 26.722656 19.597656 26.386719 L 19.597656 24.542969 C 19.597656 24.203125 19.875 23.925781 20.210938 23.925781 C 20.546875 23.925781 20.820312 24.203125 20.820312 24.542969 L 20.820312 26.386719 C 20.824219 26.722656 20.546875 27 20.210938 27 Z M 29.394531 27 C 29.054688 27 28.785156 26.722656 28.785156 26.386719 L 28.785156 24.542969 C 28.785156 24.203125 29.0625 23.925781 29.394531 23.925781 C 29.734375 23.925781 30.003906 24.203125 30.003906 24.542969 L 30.003906 26.386719 C 30.011719 26.722656 29.734375 27 29.394531 27 Z M 17.761719 27 C 17.421875 27 17.152344 26.722656 17.152344 26.386719 L 17.152344 24.542969 C 17.152344 24.203125 17.429688 23.925781 17.761719 23.925781 C 18.101562 23.925781 18.371094 24.203125 18.371094 24.542969 L 18.371094 26.386719 C 18.371094 26.722656 18.101562 27 17.761719 27 Z M 15.316406 27 C 14.976562 27 14.703125 26.722656 14.703125 26.386719 L 14.703125 24.542969 C 14.703125 24.203125 14.980469 23.925781 15.316406 23.925781 C 15.652344 23.925781 15.925781 24.203125 15.925781 24.542969 L 15.925781 26.386719 C 15.925781 26.722656 15.648438 27 15.316406 27 Z M 31.847656 27 L 26.945312 27 C 26.609375 27 26.335938 26.722656 26.335938 26.386719 L 26.335938 22.078125 C 26.335938 21.738281 26.613281 21.460938 26.945312 21.460938 L 31.847656 21.460938 C 32.1875 21.460938 32.457031 21.738281 32.457031 22.078125 L 32.457031 26.386719 C 32.457031 26.722656 32.179688 27 31.847656 27 Z M 31.230469 22.691406 L 27.558594 22.691406 L 27.558594 25.769531 L 31.230469 25.769531 Z M 5.515625 6.6875 L 3.066406 6.6875 C 2.726562 6.6875 2.457031 6.410156 2.457031 6.070312 C 2.457031 5.734375 2.734375 5.457031 3.066406 5.457031 L 5.515625 5.457031 C 5.851562 5.457031 6.125 5.734375 6.125 6.070312 C 6.128906 6.410156 5.851562 6.6875 5.515625 6.6875 Z M 5.515625 16.539062 L 3.066406 16.539062 C 2.726562 16.539062 2.457031 16.261719 2.457031 15.925781 C 2.457031 15.585938 2.734375 15.308594 3.066406 15.308594 L 5.515625 15.308594 C 5.851562 15.308594 6.125 15.585938 6.125 15.925781 C 6.128906 16.261719 5.851562 16.539062 5.515625 16.539062 Z M 14.089844 20.226562 C 10.375 20.226562 7.351562 17.1875 7.351562 13.453125 C 7.351562 9.71875 10.375 6.679688 14.089844 6.679688 C 17.800781 6.679688 20.824219 9.71875 20.824219 13.453125 C 20.824219 17.1875 17.800781 20.226562 14.089844 20.226562 Z M 14.089844 7.917969 C 11.046875 7.917969 8.578125 10.402344 8.578125 13.453125 C 8.578125 16.511719 11.046875 18.992188 14.089844 18.992188 C 17.128906 18.992188 19.597656 16.503906 19.597656 13.453125 C 19.597656 10.402344 17.128906 7.917969 14.089844 7.917969 Z M 14.089844 15.917969 C 12.738281 15.917969 11.640625 14.816406 11.640625 13.453125 C 11.640625 12.097656 12.738281 10.988281 14.089844 10.988281 C 15.4375 10.988281 16.535156 12.09375 16.535156 13.453125 C 16.535156 14.816406 15.4375 15.917969 14.089844 15.917969 Z M 14.089844 12.226562 C 13.410156 12.226562 12.863281 12.777344 12.863281 13.453125 C 12.863281 14.132812 13.410156 14.683594 14.089844 14.683594 C 14.761719 14.683594 15.316406 14.132812 15.316406 13.453125 C 15.316406 12.78125 14.765625 12.226562 14.089844 12.226562 Z M 34.292969 22.691406 L 5.515625 22.691406 C 5.175781 22.691406 4.902344 22.414062 4.902344 22.078125 L 4.902344 4.84375 C 4.902344 4.503906 5.179688 4.226562 5.515625 4.226562 L 34.292969 4.226562 C 36.316406 4.226562 37.96875 5.882812 37.96875 7.921875 L 37.96875 19.003906 C 37.96875 21.035156 36.316406 22.691406 34.292969 22.691406 Z M 36.742188 7.917969 C 36.742188 6.558594 35.640625 5.457031 34.292969 5.457031 L 6.128906 5.457031 L 6.128906 21.460938 L 34.292969 21.460938 C 35.644531 21.460938 36.742188 20.359375 36.742188 19.003906 Z M 14.089844 12.226562 C 13.75 12.226562 13.476562 11.949219 13.476562 11.609375 C 13.476562 10.28125 11.792969 9.152344 10.414062 9.152344 C 10.074219 9.152344 9.804688 8.875 9.804688 8.535156 C 9.804688 8.199219 10.082031 7.921875 10.414062 7.921875 C 12.398438 7.921875 14.699219 9.535156 14.699219 11.617188 C 14.699219 11.949219 14.425781 12.226562 14.089844 12.226562 Z M 17.761719 18.996094 C 15.777344 18.996094 13.476562 17.382812 13.476562 15.304688 C 13.476562 14.964844 13.753906 14.6875 14.089844 14.6875 C 14.425781 14.6875 14.699219 14.964844 14.699219 15.304688 C 14.699219 16.628906 16.382812 17.761719 17.761719 17.761719 C 18.101562 17.761719 18.371094 18.039062 18.371094 18.378906 C 18.371094 18.722656 18.101562 18.996094 17.761719 18.996094 Z M 12.25 14.074219 C 10.933594 14.074219 9.804688 15.769531 9.804688 17.152344 C 9.804688 17.492188 9.527344 17.769531 9.191406 17.769531 C 8.855469 17.769531 8.582031 17.492188 8.582031 17.152344 C 8.582031 15.160156 10.1875 12.84375 12.257812 12.84375 C 12.597656 12.84375 12.867188 13.121094 12.867188 13.460938 C 12.863281 13.796875 12.589844 14.074219 12.25 14.074219 Z M 15.925781 14.074219 C 15.585938 14.074219 15.316406 13.796875 15.316406 13.460938 C 15.316406 13.121094 15.589844 12.84375 15.925781 12.84375 C 17.242188 12.84375 18.371094 11.152344 18.371094 9.765625 C 18.371094 9.425781 18.648438 9.152344 18.984375 9.152344 C 19.320312 9.152344 19.59375 9.425781 19.59375 9.765625 C 19.597656 11.757812 17.992188 14.074219 15.925781 14.074219 Z M 13.222656 12.585938 C 12.984375 12.828125 12.597656 12.828125 12.359375 12.585938 C 11.941406 12.167969 11.261719 11.984375 10.480469 12.074219 C 9.707031 12.167969 8.957031 12.523438 8.457031 13.015625 C 8.339844 13.136719 8.179688 13.195312 8.023438 13.195312 C 7.863281 13.195312 7.707031 13.136719 7.589844 13.015625 C 7.351562 12.777344 7.351562 12.386719 7.589844 12.148438 C 8.273438 11.464844 9.296875 10.976562 10.328125 10.851562 C 11.5 10.707031 12.523438 11.011719 13.21875 11.714844 C 13.460938 11.960938 13.460938 12.34375 13.222656 12.585938 Z M 20.582031 14.765625 C 19.902344 15.449219 18.875 15.929688 17.839844 16.054688 C 17.65625 16.078125 17.46875 16.089844 17.289062 16.089844 C 16.347656 16.089844 15.535156 15.78125 14.953125 15.195312 C 14.714844 14.953125 14.714844 14.5625 14.953125 14.320312 C 15.191406 14.082031 15.582031 14.082031 15.816406 14.320312 C 16.234375 14.742188 16.914062 14.925781 17.695312 14.832031 C 18.46875 14.742188 19.21875 14.382812 19.71875 13.890625 C 19.953125 13.648438 20.34375 13.648438 20.582031 13.890625 C 20.820312 14.132812 20.820312 14.523438 20.582031 14.765625 Z M 13.652344 19.984375 C 13.535156 20.105469 13.382812 20.164062 13.222656 20.164062 C 13.066406 20.164062 12.90625 20.105469 12.789062 19.984375 C 11.386719 18.578125 10.890625 15.796875 12.351562 14.328125 C 12.589844 14.085938 12.980469 14.085938 13.21875 14.328125 C 13.453125 14.570312 13.453125 14.960938 13.21875 15.195312 C 12.285156 16.132812 12.675781 18.128906 13.652344 19.113281 C 13.894531 19.355469 13.894531 19.746094 13.652344 19.984375 Z M 15.816406 12.585938 C 15.699219 12.707031 15.539062 12.765625 15.382812 12.765625 C 15.222656 12.765625 15.070312 12.703125 14.945312 12.582031 C 14.710938 12.339844 14.710938 11.949219 14.945312 11.714844 C 15.878906 10.777344 15.488281 8.777344 14.511719 7.796875 C 14.273438 7.554688 14.273438 7.164062 14.511719 6.921875 C 14.75 6.679688 15.140625 6.679688 15.375 6.921875 C 16.789062 8.339844 17.28125 11.121094 15.816406 12.585938 Z M 28.785156 20.226562 C 25.070312 20.226562 22.046875 17.1875 22.046875 13.453125 C 22.046875 9.71875 25.070312 6.679688 28.785156 6.679688 C 32.496094 6.679688 35.519531 9.71875 35.519531 13.453125 C 35.519531 17.1875 32.496094 20.226562 28.785156 20.226562 Z M 28.785156 7.917969 C 25.742188 7.917969 23.273438 10.402344 23.273438 13.453125 C 23.273438 16.511719 25.742188 18.992188 28.785156 18.992188 C 31.824219 18.992188 34.292969 16.503906 34.292969 13.453125 C 34.292969 10.402344 31.824219 7.917969 28.785156 7.917969 Z M 28.785156 15.917969 C 27.433594 15.917969 26.335938 14.816406 26.335938 13.453125 C 26.335938 12.097656 27.433594 10.988281 28.785156 10.988281 C 30.132812 10.988281 31.230469 12.09375 31.230469 13.453125 C 31.230469 14.816406 30.132812 15.917969 28.785156 15.917969 Z M 28.785156 12.226562 C 28.105469 12.226562 27.558594 12.777344 27.558594 13.453125 C 27.558594 14.132812 28.105469 14.683594 28.785156 14.683594 C 29.457031 14.683594 30.011719 14.132812 30.011719 13.453125 C 30.011719 12.78125 29.460938 12.226562 28.785156 12.226562 Z M 28.785156 12.226562 C 28.445312 12.226562 28.171875 11.949219 28.171875 11.609375 C 28.171875 10.28125 26.488281 9.152344 25.109375 9.152344 C 24.769531 9.152344 24.5 8.875 24.5 8.535156 C 24.5 8.199219 24.777344 7.921875 25.109375 7.921875 C 27.09375 7.921875 29.394531 9.535156 29.394531 11.617188 C 29.394531 11.949219 29.121094 12.226562 28.785156 12.226562 Z M 32.457031 18.996094 C 30.472656 18.996094 28.171875 17.382812 28.171875 15.304688 C 28.171875 14.964844 28.449219 14.6875 28.785156 14.6875 C 29.121094 14.6875 29.394531 14.964844 29.394531 15.304688 C 29.394531 16.628906 31.078125 17.761719 32.457031 17.761719 C 32.796875 17.761719 33.066406 18.039062 33.066406 18.378906 C 33.066406 18.722656 32.796875 18.996094 32.457031 18.996094 Z M 26.945312 14.074219 C 25.628906 14.074219 24.5 15.769531 24.5 17.152344 C 24.5 17.492188 24.222656 17.769531 23.890625 17.769531 C 23.550781 17.769531 23.277344 17.492188 23.277344 17.152344 C 23.277344 15.160156 24.882812 12.84375 26.953125 12.84375 C 27.292969 12.84375 27.5625 13.121094 27.5625 13.460938 C 27.558594 13.796875 27.285156 14.074219 26.945312 14.074219 Z M 30.621094 14.074219 C 30.28125 14.074219 30.011719 13.796875 30.011719 13.460938 C 30.011719 13.121094 30.289062 12.84375 30.621094 12.84375 C 31.9375 12.84375 33.066406 11.152344 33.066406 9.765625 C 33.066406 9.425781 33.34375 9.152344 33.679688 9.152344 C 34.019531 9.152344 34.289062 9.425781 34.289062 9.765625 C 34.292969 11.757812 32.6875 14.074219 30.621094 14.074219 Z M 27.917969 12.585938 C 27.679688 12.828125 27.292969 12.828125 27.054688 12.585938 C 26.640625 12.167969 25.957031 11.984375 25.183594 12.074219 C 24.410156 12.167969 23.65625 12.523438 23.160156 13.015625 C 23.042969 13.136719 22.882812 13.195312 22.722656 13.195312 C 22.566406 13.195312 22.40625 13.136719 22.289062 13.015625 C 22.050781 12.777344 22.050781 12.386719 22.289062 12.148438 C 22.972656 11.464844 23.996094 10.976562 25.03125 10.851562 C 26.199219 10.707031 27.222656 11.011719 27.917969 11.714844 C 28.15625 11.960938 28.15625 12.34375 27.917969 12.585938 Z M 35.277344 14.765625 C 34.601562 15.449219 33.570312 15.929688 32.535156 16.054688 C 32.351562 16.078125 32.164062 16.089844 31.984375 16.089844 C 31.042969 16.089844 30.230469 15.78125 29.648438 15.195312 C 29.410156 14.953125 29.410156 14.5625 29.648438 14.320312 C 29.886719 14.082031 30.277344 14.082031 30.511719 14.320312 C 30.929688 14.742188 31.609375 14.925781 32.390625 14.832031 C 33.164062 14.742188 33.914062 14.382812 34.414062 13.890625 C 34.652344 13.648438 35.039062 13.648438 35.277344 13.890625 C 35.515625 14.132812 35.515625 14.523438 35.277344 14.765625 Z M 28.347656 19.984375 C 28.230469 20.105469 28.078125 20.164062 27.917969 20.164062 C 27.761719 20.164062 27.601562 20.105469 27.484375 19.984375 C 26.082031 18.578125 25.589844 15.796875 27.046875 14.328125 C 27.285156 14.085938 27.675781 14.085938 27.914062 14.328125 C 28.152344 14.570312 28.152344 14.960938 27.914062 15.195312 C 26.980469 16.132812 27.371094 18.128906 28.347656 19.113281 C 28.589844 19.355469 28.589844 19.746094 28.347656 19.984375 Z M 30.511719 12.585938 C 30.394531 12.707031 30.234375 12.765625 30.078125 12.765625 C 29.917969 12.765625 29.765625 12.703125 29.644531 12.582031 C 29.40625 12.339844 29.40625 11.949219 29.644531 11.714844 C 30.574219 10.777344 30.183594 8.777344 29.207031 7.796875 C 28.96875 7.554688 28.96875 7.164062 29.207031 6.921875 C 29.445312 6.679688 29.835938 6.679688 30.074219 6.921875 C 31.484375 8.339844 31.976562 11.121094 30.511719 12.585938 Z M 30.511719 12.585938 "/>
</g>
</svg>
