<?xml version="1.0" encoding="UTF-8"?>
<svg xmlns="http://www.w3.org/2000/svg" xmlns:xlink="http://www.w3.org/1999/xlink" width="40pt" height="31pt" viewBox="0 0 40 31" version="1.1">
<g id="surface1">
<path style=" stroke:none;fill-rule:nonzero;fill:rgb(0%,61.960784%,66.27451%);fill-opacity:1;" d="M 39.335938 12.273438 C 39.703125 12.273438 40 12.582031 40 12.960938 L 40 17.09375 C 40 17.480469 39.703125 17.785156 39.335938 17.785156 L 38.671875 17.785156 L 38.671875 28.804688 C 38.671875 29.183594 38.371094 29.496094 38.007812 29.496094 L 22 29.496094 C 22 29.875 21.703125 30.183594 21.335938 30.183594 L 18.671875 30.183594 C 18.304688 30.183594 18.007812 29.875 18.007812 29.496094 L 16.671875 29.496094 L 16.671875 30.183594 C 16.671875 30.5625 16.371094 30.871094 16.007812 30.871094 L 12.007812 30.871094 C 11.640625 30.871094 11.34375 30.5625 11.34375 30.183594 L 11.34375 29.496094 L 2 29.496094 C 1.632812 29.496094 1.335938 29.183594 1.335938 28.804688 L 1.335938 19.160156 L 0.664062 19.160156 C 0.296875 19.160156 0 18.851562 0 18.472656 L 0 6.761719 C 0 6.382812 0.296875 6.074219 0.664062 6.074219 L 1.328125 6.074219 L 1.328125 1.25 C 1.328125 0.871094 1.628906 0.5625 1.992188 0.5625 L 37.992188 0.5625 C 38.359375 0.5625 38.65625 0.871094 38.65625 1.25 L 38.65625 5.382812 L 39.320312 5.382812 C 39.6875 5.382812 39.988281 5.695312 39.988281 6.074219 L 39.988281 10.207031 C 39.988281 10.585938 39.6875 10.894531 39.320312 10.894531 L 38.65625 10.894531 L 38.65625 12.273438 Z M 32 28.117188 L 37.335938 28.117188 L 37.335938 22.605469 L 32 22.605469 Z M 19.335938 28.8125 L 20.671875 28.8125 L 20.671875 27.433594 L 19.335938 27.433594 Z M 12.664062 29.496094 L 15.328125 29.496094 L 15.328125 23.984375 L 12.664062 23.984375 Z M 1.335938 7.449219 L 1.335938 17.785156 L 3.335938 17.785156 L 3.335938 7.449219 Z M 37.335938 1.945312 L 2.664062 1.945312 L 2.664062 6.078125 L 4 6.078125 C 4.367188 6.078125 4.664062 6.390625 4.664062 6.769531 L 4.664062 18.480469 C 4.664062 18.859375 4.367188 19.167969 4 19.167969 L 2.664062 19.167969 L 2.664062 28.125 L 11.328125 28.125 L 11.328125 23.300781 C 11.328125 22.921875 11.628906 22.613281 11.992188 22.613281 L 15.992188 22.613281 C 16.359375 22.613281 16.65625 22.921875 16.65625 23.300781 L 16.65625 28.125 L 17.992188 28.125 L 17.992188 26.746094 C 17.992188 26.367188 18.292969 26.058594 18.65625 26.058594 L 21.320312 26.058594 C 21.6875 26.058594 21.988281 26.367188 21.988281 26.746094 L 21.988281 28.125 L 30.652344 28.125 L 30.652344 21.925781 C 30.652344 21.539062 30.949219 21.234375 31.316406 21.234375 L 37.316406 21.234375 L 37.316406 17.789062 L 32.652344 17.789062 C 32.285156 17.789062 31.988281 17.480469 31.988281 17.101562 L 31.988281 12.96875 C 31.988281 12.582031 32.285156 12.28125 32.652344 12.28125 L 37.316406 12.28125 L 37.316406 10.902344 L 32.652344 10.902344 C 32.285156 10.902344 31.988281 10.589844 31.988281 10.210938 L 31.988281 6.078125 C 31.988281 5.699219 32.285156 5.390625 32.652344 5.390625 L 37.316406 5.390625 L 37.316406 1.945312 C 37.316406 1.945312 37.335938 1.945312 37.335938 1.945312 Z M 38.671875 6.769531 L 33.335938 6.769531 L 33.335938 9.523438 L 38.671875 9.523438 Z M 33.335938 13.648438 L 33.335938 16.40625 L 38.671875 16.40625 L 38.671875 13.648438 Z M 8 7.449219 C 6.894531 7.449219 6 6.519531 6 5.382812 C 6 4.246094 6.894531 3.316406 8 3.316406 C 9.105469 3.316406 10 4.246094 10 5.382812 C 10 6.527344 9.105469 7.449219 8 7.449219 Z M 8 4.695312 C 7.632812 4.695312 7.335938 5.003906 7.335938 5.382812 C 7.335938 5.761719 7.632812 6.074219 8 6.074219 C 8.367188 6.074219 8.664062 5.761719 8.664062 5.382812 C 8.664062 5.003906 8.367188 4.695312 8 4.695312 Z M 27.335938 7.449219 C 26.230469 7.449219 25.335938 6.519531 25.335938 5.382812 C 25.335938 4.246094 26.238281 3.316406 27.335938 3.316406 C 28.441406 3.316406 29.335938 4.246094 29.335938 5.382812 C 29.335938 6.527344 28.433594 7.449219 27.335938 7.449219 Z M 27.335938 4.695312 C 26.96875 4.695312 26.671875 5.003906 26.671875 5.382812 C 26.671875 5.761719 26.96875 6.074219 27.335938 6.074219 C 27.703125 6.074219 28 5.761719 28 5.382812 C 28 5.003906 27.703125 4.695312 27.335938 4.695312 Z M 8 26.050781 C 6.894531 26.050781 6 25.128906 6 23.984375 C 6 22.847656 6.894531 21.917969 8 21.917969 C 9.105469 21.917969 10 22.839844 10 23.984375 C 10 25.128906 9.105469 26.050781 8 26.050781 Z M 8 23.292969 C 7.632812 23.292969 7.335938 23.605469 7.335938 23.984375 C 7.335938 24.363281 7.632812 24.671875 8 24.671875 C 8.367188 24.671875 8.664062 24.363281 8.664062 23.984375 C 8.664062 23.605469 8.367188 23.292969 8 23.292969 Z M 27.335938 26.050781 C 26.230469 26.050781 25.335938 25.128906 25.335938 23.984375 C 25.335938 22.847656 26.238281 21.917969 27.335938 21.917969 C 28.441406 21.917969 29.335938 22.839844 29.335938 23.984375 C 29.335938 25.128906 28.433594 26.050781 27.335938 26.050781 Z M 27.335938 23.292969 C 26.96875 23.292969 26.671875 23.605469 26.671875 23.984375 C 26.671875 24.363281 26.96875 24.671875 27.335938 24.671875 C 27.703125 24.671875 28 24.363281 28 23.984375 C 28 23.605469 27.703125 23.292969 27.335938 23.292969 Z M 23.335938 7.449219 L 12 7.449219 C 11.632812 7.449219 11.335938 7.140625 11.335938 6.761719 L 11.335938 4.007812 C 11.335938 3.621094 11.632812 3.316406 12 3.316406 L 23.335938 3.316406 C 23.703125 3.316406 24 3.628906 24 4.007812 L 24 6.761719 C 24 7.148438 23.703125 7.449219 23.335938 7.449219 Z M 22.664062 4.695312 L 12.664062 4.695312 L 12.664062 6.074219 L 22.664062 6.074219 Z M 6 11.582031 L 6 10.207031 L 7.335938 10.207031 L 7.335938 11.582031 Z M 6 14.339844 L 6 12.960938 L 7.335938 12.960938 L 7.335938 14.339844 Z M 6 17.09375 L 6 15.71875 L 7.335938 15.71875 L 7.335938 17.09375 Z M 6 19.855469 L 6 18.480469 L 7.335938 18.480469 L 7.335938 19.855469 Z M 8.664062 11.582031 L 8.664062 10.207031 L 10 10.207031 L 10 11.582031 Z M 8.664062 14.339844 L 8.664062 12.960938 L 10 12.960938 L 10 14.339844 Z M 8.664062 17.09375 L 8.664062 15.71875 L 10 15.71875 L 10 17.09375 Z M 8.664062 19.855469 L 8.664062 18.480469 L 10 18.480469 L 10 19.855469 Z M 11.335938 11.582031 L 11.335938 10.207031 L 12.671875 10.207031 L 12.671875 11.582031 Z M 11.335938 14.339844 L 11.335938 12.960938 L 12.671875 12.960938 L 12.671875 14.339844 Z M 11.335938 17.09375 L 11.335938 15.71875 L 12.671875 15.71875 L 12.671875 17.09375 Z M 11.335938 19.855469 L 11.335938 18.480469 L 12.671875 18.480469 L 12.671875 19.855469 Z M 22.664062 19.855469 L 14.664062 19.855469 C 14.296875 19.855469 14 19.546875 14 19.167969 L 14 10.902344 C 14 10.523438 14.296875 10.210938 14.664062 10.210938 L 22.664062 10.210938 C 23.03125 10.210938 23.328125 10.523438 23.328125 10.902344 L 23.328125 19.167969 C 23.335938 19.546875 23.039062 19.855469 22.664062 19.855469 Z M 22 11.582031 L 15.328125 11.582031 L 15.328125 18.472656 L 22 18.472656 Z M 30 19.160156 L 25.335938 19.160156 C 24.96875 19.160156 24.671875 18.851562 24.671875 18.472656 L 24.671875 11.582031 C 24.671875 11.203125 24.96875 10.894531 25.335938 10.894531 L 30 10.894531 C 30.367188 10.894531 30.664062 11.203125 30.664062 11.582031 L 30.664062 18.472656 C 30.664062 18.859375 30.367188 19.160156 30 19.160156 Z M 29.335938 12.273438 L 26 12.273438 L 26 17.785156 L 29.335938 17.785156 Z M 29.335938 12.273438 "/>
</g>
</svg>
