<?xml version="1.0" encoding="UTF-8"?>
<svg xmlns="http://www.w3.org/2000/svg" xmlns:xlink="http://www.w3.org/1999/xlink" width="40pt" height="31pt" viewBox="0 0 40 31" version="1.1">
<g id="surface1">
<path style=" stroke:none;fill-rule:nonzero;fill:rgb(0%,61.960784%,66.27451%);fill-opacity:1;" d="M 34.164062 26.074219 L 5.730469 26.074219 C 4.425781 26.074219 3.363281 24.996094 3.363281 23.667969 L 3.363281 6.3125 L 4.3125 6.3125 L 4.3125 23.660156 C 4.3125 24.457031 4.949219 25.109375 5.730469 25.109375 L 34.164062 25.109375 C 34.945312 25.109375 35.582031 24.457031 35.582031 23.660156 L 35.582031 2.457031 C 35.582031 1.660156 34.945312 1.007812 34.164062 1.007812 L 5.730469 1.007812 C 4.949219 1.015625 4.3125 1.660156 4.3125 2.457031 L 4.3125 4.382812 L 3.363281 4.382812 L 3.363281 2.457031 C 3.363281 1.128906 4.425781 0.0507812 5.730469 0.0507812 L 34.164062 0.0507812 C 35.46875 0.0507812 36.53125 1.128906 36.53125 2.457031 L 36.53125 23.660156 C 36.53125 24.996094 35.46875 26.074219 34.164062 26.074219 Z M 27.050781 30.894531 L 12.835938 30.894531 C 12.578125 30.894531 12.363281 30.679688 12.363281 30.414062 C 12.363281 28.007812 14.859375 28.007812 15.679688 28.007812 L 24.210938 28.007812 C 25.035156 28.007812 27.527344 28.007812 27.527344 30.414062 C 27.527344 30.679688 27.316406 30.894531 27.050781 30.894531 Z M 24.210938 28.964844 L 15.679688 28.964844 C 14.101562 28.964844 13.53125 29.332031 13.367188 29.929688 L 26.519531 29.929688 C 26.355469 29.339844 25.785156 28.964844 24.210938 28.964844 Z M 23.734375 28.964844 L 16.160156 28.964844 C 15.894531 28.964844 15.6875 28.75 15.6875 28.480469 L 15.6875 25.59375 C 15.6875 25.324219 15.902344 25.109375 16.160156 25.109375 L 23.742188 25.109375 C 24 25.109375 24.210938 25.324219 24.210938 25.59375 L 24.210938 28.480469 C 24.210938 28.75 24 28.964844 23.734375 28.964844 Z M 23.265625 26.074219 L 16.628906 26.074219 L 16.628906 28 L 23.265625 28 Z M 3.835938 22.21875 L 3.835938 21.253906 L 36.054688 21.253906 L 36.054688 22.21875 Z M 18.050781 24.148438 L 18.050781 23.183594 L 21.84375 23.183594 L 21.84375 24.148438 Z M 18.050781 24.148438 "/>
</g>
</svg>
