<?xml version="1.0" encoding="UTF-8"?>
<svg xmlns="http://www.w3.org/2000/svg" xmlns:xlink="http://www.w3.org/1999/xlink" width="40pt" height="41pt" viewBox="0 0 40 41" version="1.1">
<g id="surface1">
<path style=" stroke:none;fill-rule:nonzero;fill:rgb(0%,61.960784%,66.27451%);fill-opacity:1;" d="M 6.273438 7.105469 C 5.949219 7.105469 5.691406 6.847656 5.691406 6.527344 C 5.691406 6.210938 5.949219 5.953125 6.273438 5.953125 C 6.597656 5.953125 6.855469 6.210938 6.855469 6.527344 C 6.855469 6.847656 6.597656 7.105469 6.273438 7.105469 Z M 8.757812 7.105469 C 8.433594 7.105469 8.167969 6.847656 8.167969 6.527344 C 8.167969 6.210938 8.429688 5.953125 8.757812 5.953125 C 9.082031 5.953125 9.339844 6.210938 9.339844 6.527344 C 9.339844 6.847656 9.082031 7.105469 8.757812 7.105469 Z M 11.242188 7.105469 C 10.917969 7.105469 10.660156 6.847656 10.660156 6.527344 C 10.660156 6.210938 10.917969 5.953125 11.242188 5.953125 C 11.566406 5.953125 11.832031 6.210938 11.832031 6.527344 C 11.832031 6.847656 11.570312 7.105469 11.242188 7.105469 Z M 13.734375 7.105469 C 13.410156 7.105469 13.152344 6.847656 13.152344 6.527344 C 13.152344 6.210938 13.410156 5.953125 13.734375 5.953125 C 14.054688 5.953125 14.316406 6.210938 14.316406 6.527344 C 14.316406 6.847656 14.054688 7.105469 13.734375 7.105469 Z M 16.21875 7.105469 C 15.894531 7.105469 15.636719 6.847656 15.636719 6.527344 C 15.636719 6.210938 15.894531 5.953125 16.21875 5.953125 C 16.539062 5.953125 16.808594 6.210938 16.808594 6.527344 C 16.808594 6.847656 16.539062 7.105469 16.21875 7.105469 Z M 18.707031 7.105469 C 18.386719 7.105469 18.125 6.847656 18.125 6.527344 C 18.125 6.210938 18.386719 5.953125 18.707031 5.953125 C 19.03125 5.953125 19.292969 6.210938 19.292969 6.527344 C 19.292969 6.847656 19.03125 7.105469 18.707031 7.105469 Z M 21.191406 7.105469 C 20.871094 7.105469 20.609375 6.847656 20.609375 6.527344 C 20.609375 6.210938 20.871094 5.953125 21.191406 5.953125 C 21.515625 5.953125 21.777344 6.210938 21.777344 6.527344 C 21.777344 6.847656 21.515625 7.105469 21.191406 7.105469 Z M 23.683594 7.105469 C 23.363281 7.105469 23.09375 6.847656 23.09375 6.527344 C 23.09375 6.210938 23.355469 5.953125 23.683594 5.953125 C 24.007812 5.953125 24.265625 6.210938 24.265625 6.527344 C 24.265625 6.847656 24.007812 7.105469 23.683594 7.105469 Z M 26.167969 7.105469 C 25.84375 7.105469 25.578125 6.847656 25.578125 6.527344 C 25.578125 6.210938 25.839844 5.953125 26.167969 5.953125 C 26.492188 5.953125 26.75 6.210938 26.75 6.527344 C 26.757812 6.847656 26.492188 7.105469 26.167969 7.105469 Z M 28.660156 7.105469 C 28.335938 7.105469 28.070312 6.847656 28.070312 6.527344 C 28.070312 6.210938 28.328125 5.953125 28.652344 5.953125 C 28.976562 5.953125 29.234375 6.210938 29.234375 6.527344 C 29.242188 6.847656 28.984375 7.105469 28.660156 7.105469 Z M 31.144531 7.105469 C 30.820312 7.105469 30.5625 6.847656 30.5625 6.527344 C 30.5625 6.210938 30.820312 5.953125 31.144531 5.953125 C 31.464844 5.953125 31.734375 6.210938 31.734375 6.527344 C 31.734375 6.847656 31.464844 7.105469 31.144531 7.105469 Z M 33.636719 7.105469 C 33.3125 7.105469 33.050781 6.847656 33.050781 6.527344 C 33.050781 6.210938 33.3125 5.953125 33.636719 5.953125 C 33.957031 5.953125 34.21875 6.210938 34.21875 6.527344 C 34.21875 6.847656 33.957031 7.105469 33.636719 7.105469 Z M 6.273438 9.601562 C 5.949219 9.601562 5.691406 9.34375 5.691406 9.015625 C 5.691406 8.695312 5.949219 8.441406 6.273438 8.441406 C 6.597656 8.441406 6.855469 8.695312 6.855469 9.015625 C 6.855469 9.34375 6.597656 9.601562 6.273438 9.601562 Z M 8.757812 9.601562 C 8.433594 9.601562 8.167969 9.34375 8.167969 9.015625 C 8.167969 8.695312 8.429688 8.441406 8.757812 8.441406 C 9.082031 8.441406 9.339844 8.695312 9.339844 9.015625 C 9.339844 9.34375 9.082031 9.601562 8.757812 9.601562 Z M 11.242188 9.601562 C 10.917969 9.601562 10.660156 9.34375 10.660156 9.015625 C 10.660156 8.695312 10.917969 8.441406 11.242188 8.441406 C 11.566406 8.441406 11.832031 8.695312 11.832031 9.015625 C 11.832031 9.34375 11.570312 9.601562 11.242188 9.601562 Z M 13.734375 9.601562 C 13.410156 9.601562 13.152344 9.34375 13.152344 9.015625 C 13.152344 8.695312 13.410156 8.441406 13.734375 8.441406 C 14.054688 8.441406 14.316406 8.695312 14.316406 9.015625 C 14.316406 9.34375 14.054688 9.601562 13.734375 9.601562 Z M 16.21875 9.601562 C 15.894531 9.601562 15.636719 9.34375 15.636719 9.015625 C 15.636719 8.695312 15.894531 8.441406 16.21875 8.441406 C 16.539062 8.441406 16.808594 8.695312 16.808594 9.015625 C 16.808594 9.34375 16.539062 9.601562 16.21875 9.601562 Z M 18.707031 9.601562 C 18.386719 9.601562 18.125 9.34375 18.125 9.015625 C 18.125 8.695312 18.386719 8.441406 18.707031 8.441406 C 19.03125 8.441406 19.292969 8.695312 19.292969 9.015625 C 19.292969 9.34375 19.03125 9.601562 18.707031 9.601562 Z M 21.191406 9.601562 C 20.871094 9.601562 20.609375 9.34375 20.609375 9.015625 C 20.609375 8.695312 20.871094 8.441406 21.191406 8.441406 C 21.515625 8.441406 21.777344 8.695312 21.777344 9.015625 C 21.777344 9.34375 21.515625 9.601562 21.191406 9.601562 Z M 23.683594 9.601562 C 23.363281 9.601562 23.09375 9.34375 23.09375 9.015625 C 23.09375 8.695312 23.355469 8.441406 23.683594 8.441406 C 24.007812 8.441406 24.265625 8.695312 24.265625 9.015625 C 24.265625 9.34375 24.007812 9.601562 23.683594 9.601562 Z M 26.167969 9.601562 C 25.84375 9.601562 25.578125 9.34375 25.578125 9.015625 C 25.578125 8.695312 25.839844 8.441406 26.167969 8.441406 C 26.492188 8.441406 26.75 8.695312 26.75 9.015625 C 26.757812 9.34375 26.492188 9.601562 26.167969 9.601562 Z M 28.660156 9.601562 C 28.335938 9.601562 28.078125 9.34375 28.078125 9.015625 C 28.078125 8.695312 28.335938 8.441406 28.660156 8.441406 C 28.984375 8.441406 29.242188 8.695312 29.242188 9.015625 C 29.242188 9.34375 28.984375 9.601562 28.660156 9.601562 Z M 31.144531 9.601562 C 30.820312 9.601562 30.5625 9.34375 30.5625 9.015625 C 30.5625 8.695312 30.820312 8.441406 31.144531 8.441406 C 31.464844 8.441406 31.734375 8.695312 31.734375 9.015625 C 31.734375 9.34375 31.464844 9.601562 31.144531 9.601562 Z M 33.636719 9.601562 C 33.3125 9.601562 33.050781 9.34375 33.050781 9.015625 C 33.050781 8.695312 33.3125 8.441406 33.636719 8.441406 C 33.957031 8.441406 34.21875 8.695312 34.21875 9.015625 C 34.21875 9.34375 33.957031 9.601562 33.636719 9.601562 Z M 6.273438 12.117188 C 5.949219 12.117188 5.691406 11.859375 5.691406 11.539062 C 5.691406 11.21875 5.949219 10.960938 6.273438 10.960938 C 6.597656 10.960938 6.855469 11.21875 6.855469 11.539062 C 6.855469 11.859375 6.597656 12.117188 6.273438 12.117188 Z M 8.757812 12.117188 C 8.433594 12.117188 8.167969 11.859375 8.167969 11.539062 C 8.167969 11.21875 8.429688 10.960938 8.757812 10.960938 C 9.082031 10.960938 9.339844 11.21875 9.339844 11.539062 C 9.339844 11.859375 9.082031 12.117188 8.757812 12.117188 Z M 31.144531 12.117188 C 30.820312 12.117188 30.5625 11.859375 30.5625 11.539062 C 30.5625 11.21875 30.820312 10.960938 31.144531 10.960938 C 31.464844 10.960938 31.734375 11.21875 31.734375 11.539062 C 31.734375 11.859375 31.464844 12.117188 31.144531 12.117188 Z M 33.636719 12.117188 C 33.3125 12.117188 33.050781 11.859375 33.050781 11.539062 C 33.050781 11.21875 33.3125 10.960938 33.636719 10.960938 C 33.957031 10.960938 34.21875 11.21875 34.21875 11.539062 C 34.21875 11.859375 33.957031 12.117188 33.636719 12.117188 Z M 6.273438 14.617188 C 5.949219 14.617188 5.691406 14.359375 5.691406 14.035156 C 5.691406 13.714844 5.949219 13.457031 6.273438 13.457031 C 6.597656 13.457031 6.855469 13.714844 6.855469 14.035156 C 6.855469 14.351562 6.597656 14.617188 6.273438 14.617188 Z M 8.757812 14.617188 C 8.433594 14.617188 8.167969 14.359375 8.167969 14.035156 C 8.167969 13.714844 8.429688 13.457031 8.757812 13.457031 C 9.082031 13.457031 9.339844 13.714844 9.339844 14.035156 C 9.339844 14.351562 9.082031 14.617188 8.757812 14.617188 Z M 31.144531 14.617188 C 30.820312 14.617188 30.5625 14.359375 30.5625 14.035156 C 30.5625 13.714844 30.820312 13.457031 31.144531 13.457031 C 31.464844 13.457031 31.734375 13.714844 31.734375 14.035156 C 31.734375 14.351562 31.464844 14.617188 31.144531 14.617188 Z M 33.636719 14.617188 C 33.3125 14.617188 33.050781 14.359375 33.050781 14.035156 C 33.050781 13.714844 33.3125 13.457031 33.636719 13.457031 C 33.957031 13.457031 34.21875 13.714844 34.21875 14.035156 C 34.21875 14.351562 33.957031 14.617188 33.636719 14.617188 Z M 6.273438 17.132812 C 5.949219 17.132812 5.691406 16.875 5.691406 16.554688 C 5.691406 16.238281 5.949219 15.980469 6.273438 15.980469 C 6.597656 15.980469 6.855469 16.238281 6.855469 16.554688 C 6.855469 16.875 6.597656 17.132812 6.273438 17.132812 Z M 8.757812 17.132812 C 8.433594 17.132812 8.167969 16.875 8.167969 16.554688 C 8.167969 16.238281 8.429688 15.980469 8.757812 15.980469 C 9.082031 15.980469 9.339844 16.238281 9.339844 16.554688 C 9.339844 16.875 9.082031 17.132812 8.757812 17.132812 Z M 31.144531 17.132812 C 30.820312 17.132812 30.5625 16.875 30.5625 16.554688 C 30.5625 16.238281 30.820312 15.980469 31.144531 15.980469 C 31.464844 15.980469 31.734375 16.238281 31.734375 16.554688 C 31.734375 16.875 31.464844 17.132812 31.144531 17.132812 Z M 33.636719 17.132812 C 33.3125 17.132812 33.050781 16.875 33.050781 16.554688 C 33.050781 16.238281 33.3125 15.980469 33.636719 15.980469 C 33.957031 15.980469 34.21875 16.238281 34.21875 16.554688 C 34.21875 16.875 33.957031 17.132812 33.636719 17.132812 Z M 6.273438 19.628906 C 5.949219 19.628906 5.691406 19.371094 5.691406 19.042969 C 5.691406 18.722656 5.949219 18.46875 6.273438 18.46875 C 6.597656 18.46875 6.855469 18.722656 6.855469 19.042969 C 6.855469 19.363281 6.597656 19.628906 6.273438 19.628906 Z M 8.757812 19.628906 C 8.433594 19.628906 8.167969 19.371094 8.167969 19.042969 C 8.167969 18.722656 8.429688 18.46875 8.757812 18.46875 C 9.082031 18.46875 9.339844 18.722656 9.339844 19.042969 C 9.339844 19.363281 9.082031 19.628906 8.757812 19.628906 Z M 31.144531 19.628906 C 30.820312 19.628906 30.5625 19.371094 30.5625 19.042969 C 30.5625 18.722656 30.820312 18.46875 31.144531 18.46875 C 31.464844 18.46875 31.734375 18.722656 31.734375 19.042969 C 31.734375 19.363281 31.464844 19.628906 31.144531 19.628906 Z M 33.636719 19.628906 C 33.3125 19.628906 33.050781 19.371094 33.050781 19.042969 C 33.050781 18.722656 33.3125 18.46875 33.636719 18.46875 C 33.957031 18.46875 34.21875 18.722656 34.21875 19.042969 C 34.21875 19.363281 33.957031 19.628906 33.636719 19.628906 Z M 6.273438 22.144531 C 5.949219 22.144531 5.691406 21.886719 5.691406 21.566406 C 5.691406 21.246094 5.945312 20.984375 6.273438 20.984375 C 6.597656 20.984375 6.855469 21.238281 6.855469 21.558594 C 6.855469 21.878906 6.597656 22.144531 6.273438 22.144531 Z M 8.757812 22.144531 C 8.433594 22.144531 8.167969 21.886719 8.167969 21.566406 C 8.167969 21.246094 8.433594 20.984375 8.757812 20.984375 C 9.082031 20.984375 9.339844 21.238281 9.339844 21.558594 C 9.339844 21.878906 9.082031 22.144531 8.757812 22.144531 Z M 31.144531 22.144531 C 30.820312 22.144531 30.5625 21.886719 30.5625 21.566406 C 30.5625 21.246094 30.820312 20.984375 31.144531 20.984375 C 31.464844 20.984375 31.734375 21.238281 31.734375 21.558594 C 31.734375 21.878906 31.464844 22.144531 31.144531 22.144531 Z M 33.636719 22.144531 C 33.3125 22.144531 33.050781 21.886719 33.050781 21.566406 C 33.050781 21.246094 33.304688 20.984375 33.636719 20.984375 C 33.957031 20.984375 34.21875 21.238281 34.21875 21.558594 C 34.21875 21.878906 33.957031 22.144531 33.636719 22.144531 Z M 6.273438 24.636719 C 5.949219 24.636719 5.691406 24.382812 5.691406 24.054688 C 5.691406 23.734375 5.949219 23.476562 6.273438 23.476562 C 6.597656 23.476562 6.855469 23.734375 6.855469 24.054688 C 6.855469 24.382812 6.597656 24.636719 6.273438 24.636719 Z M 8.757812 24.636719 C 8.433594 24.636719 8.167969 24.382812 8.167969 24.054688 C 8.167969 23.734375 8.429688 23.476562 8.757812 23.476562 C 9.082031 23.476562 9.339844 23.734375 9.339844 24.054688 C 9.339844 24.382812 9.082031 24.636719 8.757812 24.636719 Z M 31.144531 24.636719 C 30.820312 24.636719 30.5625 24.382812 30.5625 24.054688 C 30.5625 23.734375 30.820312 23.476562 31.144531 23.476562 C 31.464844 23.476562 31.734375 23.734375 31.734375 24.054688 C 31.734375 24.382812 31.464844 24.636719 31.144531 24.636719 Z M 33.636719 24.636719 C 33.3125 24.636719 33.050781 24.382812 33.050781 24.054688 C 33.050781 23.734375 33.3125 23.476562 33.636719 23.476562 C 33.957031 23.476562 34.21875 23.734375 34.21875 24.054688 C 34.21875 24.382812 33.957031 24.636719 33.636719 24.636719 Z M 6.273438 27.152344 C 5.949219 27.152344 5.691406 26.898438 5.691406 26.578125 C 5.691406 26.257812 5.949219 26 6.273438 26 C 6.597656 26 6.855469 26.257812 6.855469 26.578125 C 6.855469 26.898438 6.597656 27.152344 6.273438 27.152344 Z M 8.757812 27.152344 C 8.433594 27.152344 8.167969 26.898438 8.167969 26.578125 C 8.167969 26.257812 8.429688 26 8.757812 26 C 9.082031 26 9.339844 26.257812 9.339844 26.578125 C 9.339844 26.898438 9.082031 27.152344 8.757812 27.152344 Z M 31.144531 27.152344 C 30.820312 27.152344 30.5625 26.898438 30.5625 26.578125 C 30.5625 26.257812 30.820312 26 31.144531 26 C 31.464844 26 31.734375 26.257812 31.734375 26.578125 C 31.734375 26.898438 31.464844 27.152344 31.144531 27.152344 Z M 33.636719 27.152344 C 33.3125 27.152344 33.050781 26.898438 33.050781 26.578125 C 33.050781 26.257812 33.3125 26 33.636719 26 C 33.957031 26 34.21875 26.257812 34.21875 26.578125 C 34.21875 26.898438 33.957031 27.152344 33.636719 27.152344 Z M 6.273438 29.648438 C 5.949219 29.648438 5.691406 29.390625 5.691406 29.070312 C 5.691406 28.753906 5.949219 28.496094 6.273438 28.496094 C 6.597656 28.496094 6.855469 28.753906 6.855469 29.070312 C 6.855469 29.390625 6.597656 29.648438 6.273438 29.648438 Z M 8.757812 29.648438 C 8.433594 29.648438 8.167969 29.390625 8.167969 29.070312 C 8.167969 28.753906 8.429688 28.496094 8.757812 28.496094 C 9.082031 28.496094 9.339844 28.753906 9.339844 29.070312 C 9.339844 29.390625 9.082031 29.648438 8.757812 29.648438 Z M 31.144531 29.648438 C 30.820312 29.648438 30.5625 29.390625 30.5625 29.070312 C 30.5625 28.753906 30.820312 28.496094 31.144531 28.496094 C 31.464844 28.496094 31.734375 28.753906 31.734375 29.070312 C 31.734375 29.390625 31.464844 29.648438 31.144531 29.648438 Z M 33.636719 29.648438 C 33.3125 29.648438 33.050781 29.390625 33.050781 29.070312 C 33.050781 28.753906 33.3125 28.496094 33.636719 28.496094 C 33.957031 28.496094 34.21875 28.753906 34.21875 29.070312 C 34.21875 29.390625 33.957031 29.648438 33.636719 29.648438 Z M 6.273438 32.164062 C 5.949219 32.164062 5.691406 31.90625 5.691406 31.585938 C 5.691406 31.269531 5.949219 31.011719 6.273438 31.011719 C 6.597656 31.011719 6.855469 31.269531 6.855469 31.585938 C 6.855469 31.90625 6.597656 32.164062 6.273438 32.164062 Z M 8.757812 32.164062 C 8.433594 32.164062 8.167969 31.90625 8.167969 31.585938 C 8.167969 31.269531 8.429688 31.011719 8.757812 31.011719 C 9.082031 31.011719 9.339844 31.269531 9.339844 31.585938 C 9.339844 31.90625 9.082031 32.164062 8.757812 32.164062 Z M 11.242188 32.164062 C 10.917969 32.164062 10.660156 31.90625 10.660156 31.585938 C 10.660156 31.269531 10.917969 31.011719 11.242188 31.011719 C 11.566406 31.011719 11.832031 31.269531 11.832031 31.585938 C 11.832031 31.90625 11.570312 32.164062 11.242188 32.164062 Z M 13.734375 32.164062 C 13.410156 32.164062 13.152344 31.90625 13.152344 31.585938 C 13.152344 31.269531 13.410156 31.011719 13.734375 31.011719 C 14.054688 31.011719 14.316406 31.269531 14.316406 31.585938 C 14.316406 31.90625 14.054688 32.164062 13.734375 32.164062 Z M 16.21875 32.164062 C 15.894531 32.164062 15.636719 31.90625 15.636719 31.585938 C 15.636719 31.269531 15.894531 31.011719 16.21875 31.011719 C 16.539062 31.011719 16.808594 31.269531 16.808594 31.585938 C 16.808594 31.90625 16.539062 32.164062 16.21875 32.164062 Z M 18.707031 32.164062 C 18.386719 32.164062 18.125 31.90625 18.125 31.585938 C 18.125 31.269531 18.386719 31.011719 18.707031 31.011719 C 19.03125 31.011719 19.292969 31.269531 19.292969 31.585938 C 19.292969 31.90625 19.03125 32.164062 18.707031 32.164062 Z M 21.191406 32.164062 C 20.871094 32.164062 20.609375 31.90625 20.609375 31.585938 C 20.609375 31.269531 20.871094 31.011719 21.191406 31.011719 C 21.515625 31.011719 21.777344 31.269531 21.777344 31.585938 C 21.777344 31.90625 21.515625 32.164062 21.191406 32.164062 Z M 23.683594 32.164062 C 23.363281 32.164062 23.09375 31.90625 23.09375 31.585938 C 23.09375 31.269531 23.355469 31.011719 23.683594 31.011719 C 24.007812 31.011719 24.265625 31.269531 24.265625 31.585938 C 24.265625 31.90625 24.007812 32.164062 23.683594 32.164062 Z M 26.167969 32.164062 C 25.84375 32.164062 25.578125 31.90625 25.578125 31.585938 C 25.578125 31.269531 25.839844 31.011719 26.167969 31.011719 C 26.492188 31.011719 26.75 31.269531 26.75 31.585938 C 26.757812 31.90625 26.492188 32.164062 26.167969 32.164062 Z M 28.660156 32.164062 C 28.335938 32.164062 28.078125 31.90625 28.078125 31.585938 C 28.078125 31.269531 28.335938 31.011719 28.660156 31.011719 C 28.984375 31.011719 29.242188 31.269531 29.242188 31.585938 C 29.242188 31.90625 28.984375 32.164062 28.660156 32.164062 Z M 31.144531 32.164062 C 30.820312 32.164062 30.5625 31.90625 30.5625 31.585938 C 30.5625 31.269531 30.820312 31.011719 31.144531 31.011719 C 31.464844 31.011719 31.734375 31.269531 31.734375 31.585938 C 31.734375 31.90625 31.464844 32.164062 31.144531 32.164062 Z M 33.636719 32.164062 C 33.3125 32.164062 33.050781 31.90625 33.050781 31.585938 C 33.050781 31.269531 33.3125 31.011719 33.636719 31.011719 C 33.957031 31.011719 34.21875 31.269531 34.21875 31.585938 C 34.21875 31.90625 33.957031 32.164062 33.636719 32.164062 Z M 6.273438 34.660156 C 5.949219 34.660156 5.691406 34.402344 5.691406 34.082031 C 5.691406 33.761719 5.949219 33.503906 6.273438 33.503906 C 6.597656 33.503906 6.855469 33.761719 6.855469 34.082031 C 6.855469 34.402344 6.597656 34.660156 6.273438 34.660156 Z M 8.757812 34.660156 C 8.433594 34.660156 8.167969 34.402344 8.167969 34.082031 C 8.167969 33.761719 8.429688 33.503906 8.757812 33.503906 C 9.082031 33.503906 9.339844 33.761719 9.339844 34.082031 C 9.339844 34.402344 9.082031 34.660156 8.757812 34.660156 Z M 11.242188 34.660156 C 10.917969 34.660156 10.660156 34.402344 10.660156 34.082031 C 10.660156 33.761719 10.917969 33.503906 11.242188 33.503906 C 11.566406 33.503906 11.832031 33.761719 11.832031 34.082031 C 11.832031 34.402344 11.570312 34.660156 11.242188 34.660156 Z M 13.734375 34.660156 C 13.410156 34.660156 13.152344 34.402344 13.152344 34.082031 C 13.152344 33.761719 13.410156 33.503906 13.734375 33.503906 C 14.054688 33.503906 14.316406 33.761719 14.316406 34.082031 C 14.316406 34.402344 14.054688 34.660156 13.734375 34.660156 Z M 16.21875 34.660156 C 15.894531 34.660156 15.636719 34.402344 15.636719 34.082031 C 15.636719 33.761719 15.894531 33.503906 16.21875 33.503906 C 16.539062 33.503906 16.808594 33.761719 16.808594 34.082031 C 16.808594 34.402344 16.539062 34.660156 16.21875 34.660156 Z M 18.707031 34.660156 C 18.386719 34.660156 18.125 34.402344 18.125 34.082031 C 18.125 33.761719 18.386719 33.503906 18.707031 33.503906 C 19.03125 33.503906 19.292969 33.761719 19.292969 34.082031 C 19.292969 34.402344 19.03125 34.660156 18.707031 34.660156 Z M 21.191406 34.660156 C 20.871094 34.660156 20.609375 34.402344 20.609375 34.082031 C 20.609375 33.761719 20.871094 33.503906 21.191406 33.503906 C 21.515625 33.503906 21.777344 33.761719 21.777344 34.082031 C 21.777344 34.402344 21.515625 34.660156 21.191406 34.660156 Z M 23.683594 34.660156 C 23.363281 34.660156 23.09375 34.402344 23.09375 34.082031 C 23.09375 33.761719 23.355469 33.503906 23.683594 33.503906 C 24.007812 33.503906 24.265625 33.761719 24.265625 34.082031 C 24.265625 34.402344 24.007812 34.660156 23.683594 34.660156 Z M 26.167969 34.660156 C 25.84375 34.660156 25.578125 34.402344 25.578125 34.082031 C 25.578125 33.761719 25.839844 33.503906 26.167969 33.503906 C 26.492188 33.503906 26.75 33.761719 26.75 34.082031 C 26.757812 34.402344 26.492188 34.660156 26.167969 34.660156 Z M 28.660156 34.660156 C 28.335938 34.660156 28.078125 34.402344 28.078125 34.082031 C 28.078125 33.761719 28.335938 33.503906 28.660156 33.503906 C 28.984375 33.503906 29.242188 33.761719 29.242188 34.082031 C 29.242188 34.402344 28.984375 34.660156 28.660156 34.660156 Z M 31.144531 34.660156 C 30.820312 34.660156 30.5625 34.402344 30.5625 34.082031 C 30.5625 33.761719 30.820312 33.503906 31.144531 33.503906 C 31.464844 33.503906 31.734375 33.761719 31.734375 34.082031 C 31.734375 34.402344 31.464844 34.660156 31.144531 34.660156 Z M 33.636719 34.660156 C 33.3125 34.660156 33.050781 34.402344 33.050781 34.082031 C 33.050781 33.761719 33.3125 33.503906 33.636719 33.503906 C 33.957031 33.503906 34.21875 33.761719 34.21875 34.082031 C 34.21875 34.402344 33.957031 34.660156 33.636719 34.660156 Z M 29.171875 19.46875 C 28.871094 19.46875 28.625 19.226562 28.625 18.933594 L 28.625 11.996094 C 28.625 11.902344 28.546875 11.824219 28.449219 11.824219 L 11.535156 11.824219 C 11.4375 11.824219 11.363281 11.902344 11.363281 11.996094 L 11.363281 18.933594 C 11.363281 19.230469 11.117188 19.46875 10.8125 19.46875 C 10.511719 19.46875 10.273438 19.226562 10.273438 18.933594 L 10.273438 11.996094 C 10.273438 11.308594 10.84375 10.746094 11.535156 10.746094 L 28.449219 10.746094 C 29.144531 10.746094 29.710938 11.308594 29.710938 11.996094 L 29.710938 18.933594 C 29.71875 19.226562 29.472656 19.46875 29.171875 19.46875 Z M 29.25 26.214844 L 25.867188 29.539062 C 25.566406 29.828125 25.171875 29.988281 24.75 29.988281 L 11.542969 29.988281 C 10.847656 29.988281 10.28125 29.425781 10.28125 28.738281 L 10.28125 21.804688 C 10.28125 21.503906 10.527344 21.261719 10.820312 21.261719 C 11.121094 21.261719 11.367188 21.503906 11.367188 21.804688 L 11.367188 28.738281 C 11.367188 28.835938 11.445312 28.910156 11.542969 28.910156 L 24.75 28.910156 C 24.882812 28.910156 25.003906 28.863281 25.101562 28.765625 L 28.484375 25.445312 C 28.574219 25.355469 28.632812 25.222656 28.632812 25.097656 L 28.632812 21.804688 C 28.632812 21.503906 28.878906 21.261719 29.179688 21.261719 C 29.480469 21.261719 29.726562 21.503906 29.726562 21.804688 L 29.726562 25.097656 C 29.71875 25.515625 29.550781 25.921875 29.25 26.214844 Z M 38.050781 28.222656 C 38.351562 28.222656 38.597656 28.46875 38.597656 28.765625 C 38.597656 29.066406 38.351562 29.300781 38.050781 29.300781 L 36.484375 29.300781 L 36.484375 32.421875 L 38.050781 32.421875 C 38.351562 32.421875 38.597656 32.664062 38.597656 32.964844 C 38.597656 33.261719 38.351562 33.5 38.050781 33.5 L 36.484375 33.5 L 36.484375 34.5625 C 36.484375 35.734375 35.515625 36.695312 34.328125 36.695312 L 33.257812 36.695312 L 33.257812 38.25 C 33.257812 38.550781 33.011719 38.785156 32.707031 38.785156 C 32.40625 38.785156 32.160156 38.542969 32.160156 38.25 L 32.160156 36.6875 L 29.015625 36.6875 L 29.015625 38.246094 C 29.015625 38.542969 28.773438 38.78125 28.46875 38.78125 C 28.167969 38.78125 27.921875 38.535156 27.921875 38.246094 L 27.921875 36.6875 L 24.777344 36.6875 L 24.777344 38.246094 C 24.777344 38.542969 24.535156 38.78125 24.230469 38.78125 C 23.929688 38.78125 23.683594 38.535156 23.683594 38.246094 L 23.683594 36.6875 L 20.535156 36.6875 L 20.535156 38.246094 C 20.535156 38.542969 20.289062 38.78125 19.992188 38.78125 C 19.691406 38.78125 19.445312 38.535156 19.445312 38.246094 L 19.445312 36.6875 L 16.292969 36.6875 L 16.292969 38.246094 C 16.292969 38.542969 16.050781 38.78125 15.753906 38.78125 C 15.453125 38.78125 15.207031 38.535156 15.207031 38.246094 L 15.207031 36.6875 L 12.070312 36.6875 L 12.070312 38.246094 C 12.070312 38.542969 11.824219 38.78125 11.523438 38.78125 C 11.222656 38.78125 10.984375 38.535156 10.984375 38.246094 L 10.984375 36.6875 L 7.832031 36.6875 L 7.832031 38.246094 C 7.832031 38.542969 7.585938 38.78125 7.285156 38.78125 C 6.984375 38.78125 6.742188 38.535156 6.742188 38.246094 L 6.742188 36.6875 L 5.671875 36.6875 C 4.484375 36.6875 3.515625 35.730469 3.515625 34.554688 L 3.515625 33.492188 L 1.949219 33.492188 C 1.648438 33.5 1.402344 33.253906 1.402344 32.957031 C 1.402344 32.65625 1.648438 32.414062 1.945312 32.414062 L 3.515625 32.414062 L 3.515625 29.292969 L 1.949219 29.292969 C 1.648438 29.300781 1.402344 29.058594 1.402344 28.757812 C 1.402344 28.460938 1.648438 28.21875 1.945312 28.21875 L 3.515625 28.21875 L 3.515625 25.097656 L 1.949219 25.097656 C 1.648438 25.105469 1.402344 24.859375 1.402344 24.5625 C 1.402344 24.261719 1.648438 24.027344 1.945312 24.027344 L 3.515625 24.027344 L 3.515625 20.90625 L 1.949219 20.90625 C 1.648438 20.90625 1.402344 20.664062 1.402344 20.363281 C 1.402344 20.066406 1.648438 19.828125 1.945312 19.828125 L 3.515625 19.828125 L 3.515625 16.710938 L 1.949219 16.710938 C 1.648438 16.710938 1.402344 16.464844 1.402344 16.167969 C 1.402344 15.867188 1.648438 15.632812 1.945312 15.632812 L 3.515625 15.632812 L 3.515625 12.511719 L 1.949219 12.511719 C 1.648438 12.511719 1.402344 12.269531 1.402344 11.96875 C 1.402344 11.671875 1.648438 11.429688 1.945312 11.429688 L 3.515625 11.429688 L 3.515625 8.316406 L 1.949219 8.316406 C 1.648438 8.316406 1.402344 8.078125 1.402344 7.78125 C 1.402344 7.480469 1.648438 7.238281 1.945312 7.238281 L 3.515625 7.238281 L 3.515625 6.175781 C 3.515625 5 4.484375 4.039062 5.671875 4.039062 L 6.742188 4.039062 L 6.742188 2.492188 C 6.742188 2.191406 6.988281 1.949219 7.285156 1.949219 C 7.585938 1.949219 7.832031 2.191406 7.832031 2.492188 L 7.832031 4.039062 L 10.984375 4.039062 L 10.984375 2.492188 C 10.984375 2.191406 11.226562 1.949219 11.523438 1.949219 C 11.824219 1.949219 12.070312 2.191406 12.070312 2.492188 L 12.070312 4.039062 L 15.222656 4.039062 L 15.222656 2.492188 C 15.222656 2.191406 15.464844 1.949219 15.769531 1.949219 C 16.070312 1.949219 16.308594 2.191406 16.308594 2.492188 L 16.308594 4.039062 L 19.460938 4.039062 L 19.460938 2.492188 C 19.460938 2.191406 19.707031 1.949219 20.007812 1.949219 C 20.308594 1.949219 20.546875 2.191406 20.546875 2.492188 L 20.546875 4.039062 L 23.699219 4.039062 L 23.699219 2.492188 C 23.699219 2.191406 23.945312 1.949219 24.246094 1.949219 C 24.546875 1.949219 24.792969 2.191406 24.792969 2.492188 L 24.792969 4.039062 L 27.9375 4.039062 L 27.9375 2.492188 C 27.9375 2.191406 28.183594 1.949219 28.484375 1.949219 C 28.785156 1.949219 29.03125 2.191406 29.03125 2.492188 L 29.03125 4.039062 L 32.175781 4.039062 L 32.175781 2.492188 C 32.175781 2.191406 32.421875 1.949219 32.722656 1.949219 C 33.023438 1.949219 33.269531 2.191406 33.269531 2.492188 L 33.269531 4.039062 L 34.34375 4.039062 C 35.53125 4.039062 36.5 5 36.5 6.175781 L 36.5 7.238281 L 38.0625 7.238281 C 38.363281 7.238281 38.609375 7.480469 38.609375 7.78125 C 38.609375 8.078125 38.363281 8.320312 38.0625 8.320312 L 36.5 8.320312 L 36.5 11.433594 L 38.0625 11.433594 C 38.363281 11.433594 38.609375 11.679688 38.609375 11.976562 C 38.609375 12.277344 38.363281 12.519531 38.0625 12.519531 L 36.5 12.519531 L 36.5 15.640625 L 38.0625 15.640625 C 38.363281 15.640625 38.609375 15.882812 38.609375 16.175781 C 38.609375 16.472656 38.363281 16.714844 38.0625 16.714844 L 36.5 16.714844 L 36.5 19.835938 L 38.0625 19.835938 C 38.363281 19.835938 38.609375 20.078125 38.609375 20.371094 C 38.609375 20.671875 38.363281 20.914062 38.0625 20.914062 L 36.5 20.914062 L 36.5 24.035156 L 38.0625 24.035156 C 38.363281 24.035156 38.609375 24.277344 38.609375 24.570312 C 38.609375 24.867188 38.363281 25.109375 38.0625 25.109375 L 36.5 25.109375 L 36.5 28.230469 L 38.050781 28.230469 Z M 35.398438 32.957031 L 35.398438 6.179688 C 35.398438 5.597656 34.917969 5.132812 34.335938 5.132812 L 5.671875 5.132812 C 5.082031 5.132812 4.601562 5.605469 4.601562 6.179688 L 4.601562 34.5625 C 4.601562 35.144531 5.082031 35.617188 5.671875 35.617188 L 34.328125 35.617188 C 34.917969 35.617188 35.390625 35.144531 35.390625 34.5625 L 35.390625 32.957031 Z M 35.398438 32.957031 "/>
</g>
</svg>
