<?xml version="1.0" encoding="UTF-8"?>
<svg xmlns="http://www.w3.org/2000/svg" xmlns:xlink="http://www.w3.org/1999/xlink" width="39pt" height="26pt" viewBox="0 0 39 26" version="1.1">
<g id="surface1">
<path style=" stroke:none;fill-rule:nonzero;fill:rgb(0%,61.960784%,66.27451%);fill-opacity:1;" d="M 35.855469 1.300781 L 8.175781 1.300781 L 8.175781 3.253906 L 23.277344 3.253906 C 23.621094 3.253906 23.90625 3.542969 23.90625 3.898438 L 23.90625 7.800781 C 23.90625 8.160156 23.628906 8.445312 23.277344 8.445312 L 15.097656 8.445312 L 15.097656 11.046875 L 27.050781 11.046875 C 28.09375 11.046875 28.941406 11.921875 28.941406 13 L 28.941406 24.054688 C 28.941406 25.132812 28.09375 26 27.050781 26 L 1.886719 26 C 0.847656 26 0 25.125 0 24.054688 L 0 13 C 0 11.921875 0.847656 11.054688 1.886719 11.046875 L 13.84375 11.046875 L 13.84375 7.800781 C 13.84375 7.4375 14.121094 7.148438 14.472656 7.148438 L 22.652344 7.148438 L 22.652344 4.546875 L 7.546875 4.546875 C 7.199219 4.546875 6.914062 4.253906 6.914062 3.894531 L 6.914062 0.652344 C 6.914062 0.292969 7.199219 0 7.546875 0 L 35.855469 0 C 36.203125 0 36.488281 0.292969 36.488281 0.652344 C 36.488281 1.007812 36.203125 1.300781 35.855469 1.300781 Z M 1.886719 12.351562 C 1.542969 12.351562 1.257812 12.644531 1.257812 13.007812 L 1.257812 24.058594 C 1.257812 24.421875 1.542969 24.707031 1.886719 24.707031 L 27.046875 24.707031 C 27.394531 24.707031 27.675781 24.414062 27.675781 24.058594 L 27.675781 13 C 27.675781 12.636719 27.398438 12.351562 27.046875 12.347656 L 1.886719 12.347656 Z M 18.867188 24.054688 L 10.066406 24.054688 C 9.71875 24.054688 9.433594 23.761719 9.433594 23.398438 L 9.433594 21.453125 C 9.433594 21.089844 9.710938 20.800781 10.066406 20.800781 L 18.875 20.800781 C 19.222656 20.800781 19.507812 21.089844 19.507812 21.453125 L 19.507812 23.398438 C 19.5 23.761719 19.214844 24.054688 18.867188 24.054688 Z M 18.242188 22.101562 L 10.691406 22.101562 L 10.691406 22.746094 L 18.238281 22.746094 L 18.238281 22.101562 Z M 13.710938 18.390625 L 12.457031 18.390625 C 12.226562 18.390625 12.039062 18.207031 12.039062 17.984375 L 12.039062 16.773438 C 12.039062 16.550781 12.226562 16.367188 12.457031 16.367188 L 13.710938 16.367188 C 13.941406 16.367188 14.125 16.550781 14.125 16.773438 L 14.125 17.984375 C 14.125 18.207031 13.941406 18.390625 13.710938 18.390625 Z M 13.289062 17.179688 L 12.871094 17.179688 L 12.871094 17.585938 L 13.289062 17.585938 Z M 16.632812 18.390625 L 15.378906 18.390625 C 15.148438 18.390625 14.960938 18.207031 14.960938 17.984375 L 14.960938 16.773438 C 14.960938 16.550781 15.148438 16.367188 15.378906 16.367188 L 16.632812 16.367188 C 16.863281 16.367188 17.054688 16.550781 17.054688 16.773438 L 17.054688 17.984375 C 17.054688 18.207031 16.867188 18.390625 16.632812 18.390625 Z M 16.21875 17.179688 L 15.804688 17.179688 L 15.804688 17.585938 L 16.21875 17.585938 Z M 7.855469 18.390625 L 6.597656 18.390625 C 6.371094 18.390625 6.183594 18.207031 6.183594 17.984375 L 6.183594 16.773438 C 6.183594 16.550781 6.371094 16.367188 6.597656 16.367188 L 7.855469 16.367188 C 8.085938 16.367188 8.269531 16.550781 8.269531 16.773438 L 8.269531 17.984375 C 8.277344 18.207031 8.085938 18.390625 7.855469 18.390625 Z M 7.441406 17.179688 L 7.019531 17.179688 L 7.019531 17.585938 L 7.441406 17.585938 Z M 10.785156 18.390625 L 9.527344 18.390625 C 9.296875 18.390625 9.113281 18.207031 9.113281 17.984375 L 9.113281 16.773438 C 9.113281 16.550781 9.296875 16.367188 9.527344 16.367188 L 10.785156 16.367188 C 11.011719 16.367188 11.203125 16.550781 11.203125 16.773438 L 11.203125 17.984375 C 11.199219 18.207031 11.011719 18.390625 10.785156 18.390625 Z M 10.363281 17.179688 L 9.949219 17.179688 L 9.949219 17.585938 L 10.363281 17.585938 Z M 19.5625 18.390625 L 18.304688 18.390625 C 18.078125 18.390625 17.890625 18.207031 17.890625 17.984375 L 17.890625 16.773438 C 17.890625 16.550781 18.078125 16.367188 18.304688 16.367188 L 19.5625 16.367188 C 19.789062 16.367188 19.976562 16.550781 19.976562 16.773438 L 19.976562 17.984375 C 19.984375 18.207031 19.789062 18.390625 19.5625 18.390625 Z M 19.148438 17.179688 L 18.726562 17.179688 L 18.726562 17.585938 L 19.148438 17.585938 Z M 22.488281 18.390625 L 21.234375 18.390625 C 21.003906 18.390625 20.820312 18.207031 20.820312 17.984375 L 20.820312 16.773438 C 20.820312 16.550781 21.003906 16.367188 21.234375 16.367188 L 22.488281 16.367188 C 22.71875 16.367188 22.910156 16.550781 22.910156 16.773438 L 22.910156 17.984375 C 22.90625 18.207031 22.71875 18.390625 22.488281 18.390625 Z M 22.070312 17.179688 L 21.652344 17.179688 L 21.652344 17.585938 L 22.070312 17.585938 Z M 15.382812 15.96875 L 14.125 15.96875 C 13.898438 15.96875 13.710938 15.785156 13.710938 15.5625 L 13.710938 14.351562 C 13.710938 14.128906 13.898438 13.945312 14.125 13.945312 L 15.382812 13.945312 C 15.613281 13.945312 15.804688 14.121094 15.804688 14.351562 L 15.804688 15.5625 C 15.796875 15.785156 15.613281 15.96875 15.382812 15.96875 Z M 14.960938 14.757812 L 14.546875 14.757812 L 14.546875 15.164062 L 14.960938 15.164062 Z M 18.3125 15.96875 L 17.054688 15.96875 C 16.824219 15.96875 16.632812 15.785156 16.632812 15.5625 L 16.632812 14.351562 C 16.632812 14.128906 16.820312 13.945312 17.054688 13.945312 L 18.3125 13.945312 C 18.539062 13.945312 18.726562 14.121094 18.726562 14.351562 L 18.726562 15.5625 C 18.726562 15.785156 18.539062 15.96875 18.3125 15.96875 Z M 17.890625 14.757812 L 17.46875 14.757812 L 17.46875 15.164062 L 17.890625 15.164062 Z M 9.527344 15.96875 L 8.269531 15.96875 C 8.042969 15.96875 7.855469 15.785156 7.855469 15.5625 L 7.855469 14.351562 C 7.855469 14.128906 8.042969 13.945312 8.269531 13.945312 L 9.527344 13.945312 C 9.757812 13.945312 9.949219 14.121094 9.949219 14.351562 L 9.949219 15.5625 C 9.949219 15.785156 9.761719 15.96875 9.527344 15.96875 Z M 9.113281 14.757812 L 8.699219 14.757812 L 8.699219 15.164062 L 9.113281 15.164062 Z M 12.457031 15.96875 L 11.199219 15.96875 C 10.96875 15.96875 10.777344 15.785156 10.777344 15.5625 L 10.777344 14.351562 C 10.777344 14.128906 10.964844 13.945312 11.199219 13.945312 L 12.457031 13.945312 C 12.683594 13.945312 12.871094 14.121094 12.871094 14.351562 L 12.871094 15.5625 C 12.871094 15.785156 12.683594 15.96875 12.457031 15.96875 Z M 12.039062 14.757812 L 11.621094 14.757812 L 11.621094 15.164062 L 12.039062 15.164062 Z M 21.234375 15.96875 L 19.976562 15.96875 C 19.746094 15.96875 19.5625 15.785156 19.5625 15.5625 L 19.5625 14.351562 C 19.5625 14.128906 19.746094 13.945312 19.976562 13.945312 L 21.234375 13.945312 C 21.460938 13.945312 21.652344 14.121094 21.652344 14.351562 L 21.652344 15.5625 C 21.652344 15.785156 21.46875 15.96875 21.234375 15.96875 Z M 20.820312 14.757812 L 20.402344 14.757812 L 20.402344 15.164062 L 20.820312 15.164062 Z M 6.921875 23.398438 L 2.511719 23.398438 C 2.167969 23.398438 1.882812 23.109375 1.882812 22.753906 C 1.882812 22.398438 2.160156 22.105469 2.511719 22.105469 L 6.914062 22.105469 C 7.261719 22.105469 7.546875 22.398438 7.546875 22.753906 C 7.546875 23.109375 7.269531 23.398438 6.921875 23.398438 Z M 26.421875 23.398438 L 22.019531 23.398438 C 21.671875 23.398438 21.386719 23.109375 21.386719 22.753906 C 21.386719 22.398438 21.667969 22.105469 22.019531 22.105469 L 26.421875 22.105469 C 26.769531 22.105469 27.050781 22.398438 27.050781 22.753906 C 27.050781 23.109375 26.769531 23.398438 26.421875 23.398438 Z M 34.597656 26 C 32.164062 26 30.195312 23.964844 30.195312 21.453125 L 30.195312 16.253906 C 30.195312 13.742188 32.171875 11.707031 34.597656 11.707031 C 37.03125 11.707031 39 13.75 39 16.253906 L 39 21.453125 C 39 23.964844 37.03125 26 34.597656 26 Z M 37.742188 16.253906 C 37.742188 14.457031 36.339844 13.007812 34.597656 13.007812 C 32.859375 13.007812 31.453125 14.457031 31.453125 16.253906 L 31.453125 17.554688 L 37.742188 17.554688 Z M 37.742188 18.851562 L 31.453125 18.851562 L 31.453125 21.453125 C 31.453125 23.246094 32.867188 24.699219 34.597656 24.699219 C 36.332031 24.699219 37.742188 23.242188 37.742188 21.453125 Z M 34.597656 16.898438 C 34.25 16.898438 33.96875 16.609375 33.96875 16.246094 L 33.96875 14.300781 C 33.96875 13.9375 34.246094 13.648438 34.597656 13.648438 C 34.945312 13.648438 35.230469 13.9375 35.230469 14.300781 L 35.230469 16.246094 C 35.222656 16.609375 34.945312 16.898438 34.597656 16.898438 Z M 38.367188 1.300781 L 37.738281 1.300781 C 37.390625 1.300781 37.105469 1.007812 37.105469 0.652344 C 37.113281 0.292969 37.390625 0 37.742188 0 L 38.375 0 C 38.714844 0 39 0.292969 39 0.652344 C 39 1.007812 38.714844 1.300781 38.367188 1.300781 Z M 38.367188 1.300781 "/>
</g>
</svg>
